<mxfile host="app.diagrams.net" modified="2022-02-18T03:59:48.516Z" agent="5.0 (Macintosh; Intel Mac OS X 10_15_7) AppleWebKit/537.36 (KHTML, like Gecko) Chrome/98.0.4758.80 Safari/537.36" etag="_eeULjJj2qu_o2mUx72r" version="16.5.6" type="github">
  <diagram name="Page-1" id="e7e014a7-5840-1c2e-5031-d8a46d1fe8dd">
    <mxGraphModel dx="1298" dy="753" grid="1" gridSize="10" guides="1" tooltips="1" connect="1" arrows="1" fold="1" page="1" pageScale="1" pageWidth="4681" pageHeight="3300" background="none" math="0" shadow="0">
      <root>
        <mxCell id="0" />
        <mxCell id="1" parent="0" />
        <mxCell id="2Rd2rmzqAi-p8BPYmMrB-163" value="" style="rounded=0;whiteSpace=wrap;html=1;dashed=1;" vertex="1" parent="1">
          <mxGeometry x="90" y="170" width="430" height="210" as="geometry" />
        </mxCell>
        <mxCell id="2Rd2rmzqAi-p8BPYmMrB-45" value="AIC" style="swimlane;startSize=23;" vertex="1" parent="1">
          <mxGeometry x="239" y="140" width="151" height="890" as="geometry" />
        </mxCell>
        <mxCell id="2Rd2rmzqAi-p8BPYmMrB-85" value="发布AIC负卖" style="rounded=0;whiteSpace=wrap;html=1;" vertex="1" parent="2Rd2rmzqAi-p8BPYmMrB-45">
          <mxGeometry x="42" y="180" width="75" height="30" as="geometry" />
        </mxCell>
        <mxCell id="2Rd2rmzqAi-p8BPYmMrB-100" value="计算各仓期货计划待补货量" style="rounded=0;whiteSpace=wrap;html=1;" vertex="1" parent="2Rd2rmzqAi-p8BPYmMrB-45">
          <mxGeometry x="42" y="357" width="75" height="30" as="geometry" />
        </mxCell>
        <mxCell id="2Rd2rmzqAi-p8BPYmMrB-160" style="edgeStyle=orthogonalEdgeStyle;rounded=0;orthogonalLoop=1;jettySize=auto;html=1;exitX=0.5;exitY=1;exitDx=0;exitDy=0;entryX=0.5;entryY=0;entryDx=0;entryDy=0;" edge="1" parent="2Rd2rmzqAi-p8BPYmMrB-45" source="2Rd2rmzqAi-p8BPYmMrB-106" target="2Rd2rmzqAi-p8BPYmMrB-121">
          <mxGeometry relative="1" as="geometry" />
        </mxCell>
        <mxCell id="2Rd2rmzqAi-p8BPYmMrB-106" value="负卖库存全部预留" style="rounded=0;whiteSpace=wrap;html=1;" vertex="1" parent="2Rd2rmzqAi-p8BPYmMrB-45">
          <mxGeometry x="42" y="410" width="75" height="30" as="geometry" />
        </mxCell>
        <mxCell id="2Rd2rmzqAi-p8BPYmMrB-121" value="平衡预留量" style="rounded=0;whiteSpace=wrap;html=1;" vertex="1" parent="2Rd2rmzqAi-p8BPYmMrB-45">
          <mxGeometry x="42" y="470" width="75" height="30" as="geometry" />
        </mxCell>
        <mxCell id="2Rd2rmzqAi-p8BPYmMrB-137" value="占用预留库存" style="rounded=0;whiteSpace=wrap;html=1;" vertex="1" parent="2Rd2rmzqAi-p8BPYmMrB-45">
          <mxGeometry x="42" y="570" width="75" height="30" as="geometry" />
        </mxCell>
        <mxCell id="2Rd2rmzqAi-p8BPYmMrB-155" value="预留库存确认" style="rounded=0;whiteSpace=wrap;html=1;" vertex="1" parent="2Rd2rmzqAi-p8BPYmMrB-45">
          <mxGeometry x="38" y="710" width="75" height="30" as="geometry" />
        </mxCell>
        <mxCell id="2Rd2rmzqAi-p8BPYmMrB-49" value="UOP" style="swimlane;startSize=23;" vertex="1" parent="1">
          <mxGeometry x="871" y="140" width="160" height="890" as="geometry" />
        </mxCell>
        <mxCell id="2Rd2rmzqAi-p8BPYmMrB-98" style="edgeStyle=orthogonalEdgeStyle;rounded=0;orthogonalLoop=1;jettySize=auto;html=1;exitX=0.5;exitY=1;exitDx=0;exitDy=0;entryX=0.5;entryY=0;entryDx=0;entryDy=0;" edge="1" parent="2Rd2rmzqAi-p8BPYmMrB-49" source="2Rd2rmzqAi-p8BPYmMrB-89" target="2Rd2rmzqAi-p8BPYmMrB-90">
          <mxGeometry relative="1" as="geometry" />
        </mxCell>
        <mxCell id="2Rd2rmzqAi-p8BPYmMrB-89" value="履约接单" style="rounded=0;whiteSpace=wrap;html=1;" vertex="1" parent="2Rd2rmzqAi-p8BPYmMrB-49">
          <mxGeometry x="42.5" y="260" width="75" height="30" as="geometry" />
        </mxCell>
        <mxCell id="2Rd2rmzqAi-p8BPYmMrB-90" value="缺货hold单" style="rounded=0;whiteSpace=wrap;html=1;" vertex="1" parent="2Rd2rmzqAi-p8BPYmMrB-49">
          <mxGeometry x="42.5" y="330" width="75" height="30" as="geometry" />
        </mxCell>
        <mxCell id="2Rd2rmzqAi-p8BPYmMrB-128" style="edgeStyle=orthogonalEdgeStyle;rounded=0;orthogonalLoop=1;jettySize=auto;html=1;exitX=0.5;exitY=1;exitDx=0;exitDy=0;entryX=0.5;entryY=0;entryDx=0;entryDy=0;" edge="1" parent="2Rd2rmzqAi-p8BPYmMrB-49" source="2Rd2rmzqAi-p8BPYmMrB-124" target="2Rd2rmzqAi-p8BPYmMrB-126">
          <mxGeometry relative="1" as="geometry" />
        </mxCell>
        <mxCell id="2Rd2rmzqAi-p8BPYmMrB-124" value="接收AIC预留变动的消息" style="rounded=0;whiteSpace=wrap;html=1;" vertex="1" parent="2Rd2rmzqAi-p8BPYmMrB-49">
          <mxGeometry x="42.5" y="470" width="75" height="30" as="geometry" />
        </mxCell>
        <mxCell id="2Rd2rmzqAi-p8BPYmMrB-140" style="edgeStyle=orthogonalEdgeStyle;rounded=0;orthogonalLoop=1;jettySize=auto;html=1;exitX=0.5;exitY=1;exitDx=0;exitDy=0;entryX=0.5;entryY=0;entryDx=0;entryDy=0;" edge="1" parent="2Rd2rmzqAi-p8BPYmMrB-49" source="2Rd2rmzqAi-p8BPYmMrB-126" target="2Rd2rmzqAi-p8BPYmMrB-139">
          <mxGeometry relative="1" as="geometry" />
        </mxCell>
        <mxCell id="2Rd2rmzqAi-p8BPYmMrB-126" value="补货处理" style="rounded=0;whiteSpace=wrap;html=1;" vertex="1" parent="2Rd2rmzqAi-p8BPYmMrB-49">
          <mxGeometry x="42.5" y="570" width="75" height="30" as="geometry" />
        </mxCell>
        <mxCell id="2Rd2rmzqAi-p8BPYmMrB-161" style="edgeStyle=orthogonalEdgeStyle;rounded=0;orthogonalLoop=1;jettySize=auto;html=1;exitX=0.5;exitY=1;exitDx=0;exitDy=0;entryX=0.5;entryY=0;entryDx=0;entryDy=0;" edge="1" parent="2Rd2rmzqAi-p8BPYmMrB-49" source="2Rd2rmzqAi-p8BPYmMrB-139" target="2Rd2rmzqAi-p8BPYmMrB-154">
          <mxGeometry relative="1" as="geometry" />
        </mxCell>
        <mxCell id="2Rd2rmzqAi-p8BPYmMrB-139" value="下发履行" style="rounded=0;whiteSpace=wrap;html=1;" vertex="1" parent="2Rd2rmzqAi-p8BPYmMrB-49">
          <mxGeometry x="42.5" y="640" width="75" height="30" as="geometry" />
        </mxCell>
        <mxCell id="2Rd2rmzqAi-p8BPYmMrB-154" value="出库确认" style="rounded=0;whiteSpace=wrap;html=1;" vertex="1" parent="2Rd2rmzqAi-p8BPYmMrB-49">
          <mxGeometry x="42.5" y="710" width="75" height="30" as="geometry" />
        </mxCell>
        <mxCell id="2Rd2rmzqAi-p8BPYmMrB-77" value="猫超全链路可售bundle" style="swimlane;" vertex="1" parent="1">
          <mxGeometry x="79" y="140" width="160" height="890" as="geometry" />
        </mxCell>
        <mxCell id="2Rd2rmzqAi-p8BPYmMrB-82" style="edgeStyle=orthogonalEdgeStyle;rounded=0;orthogonalLoop=1;jettySize=auto;html=1;exitX=0.5;exitY=1;exitDx=0;exitDy=0;entryX=0.5;entryY=0;entryDx=0;entryDy=0;" edge="1" parent="2Rd2rmzqAi-p8BPYmMrB-77" source="2Rd2rmzqAi-p8BPYmMrB-79" target="2Rd2rmzqAi-p8BPYmMrB-80">
          <mxGeometry relative="1" as="geometry" />
        </mxCell>
        <mxCell id="2Rd2rmzqAi-p8BPYmMrB-79" value="填写负卖信息" style="rounded=0;whiteSpace=wrap;html=1;" vertex="1" parent="2Rd2rmzqAi-p8BPYmMrB-77">
          <mxGeometry x="42.5" y="60" width="75" height="30" as="geometry" />
        </mxCell>
        <mxCell id="2Rd2rmzqAi-p8BPYmMrB-83" style="edgeStyle=orthogonalEdgeStyle;rounded=0;orthogonalLoop=1;jettySize=auto;html=1;exitX=0.5;exitY=1;exitDx=0;exitDy=0;" edge="1" parent="2Rd2rmzqAi-p8BPYmMrB-77" source="2Rd2rmzqAi-p8BPYmMrB-80" target="2Rd2rmzqAi-p8BPYmMrB-81">
          <mxGeometry relative="1" as="geometry" />
        </mxCell>
        <mxCell id="2Rd2rmzqAi-p8BPYmMrB-80" value="审核负卖信息" style="rounded=0;whiteSpace=wrap;html=1;" vertex="1" parent="2Rd2rmzqAi-p8BPYmMrB-77">
          <mxGeometry x="42.5" y="120" width="75" height="30" as="geometry" />
        </mxCell>
        <mxCell id="2Rd2rmzqAi-p8BPYmMrB-81" value="发布负卖" style="rounded=0;whiteSpace=wrap;html=1;" vertex="1" parent="2Rd2rmzqAi-p8BPYmMrB-77">
          <mxGeometry x="42" y="180" width="75" height="30" as="geometry" />
        </mxCell>
        <mxCell id="2Rd2rmzqAi-p8BPYmMrB-164" value="负卖发布" style="text;html=1;strokeColor=none;fillColor=none;align=center;verticalAlign=middle;whiteSpace=wrap;rounded=0;dashed=1;" vertex="1" parent="2Rd2rmzqAi-p8BPYmMrB-77">
          <mxGeometry x="21" y="30" width="60" height="30" as="geometry" />
        </mxCell>
        <mxCell id="2Rd2rmzqAi-p8BPYmMrB-41" value="TP" style="swimlane;" vertex="1" parent="1">
          <mxGeometry x="711" y="140" width="160" height="890" as="geometry" />
        </mxCell>
        <mxCell id="2Rd2rmzqAi-p8BPYmMrB-56" value="交易下单" style="rounded=0;whiteSpace=wrap;html=1;" vertex="1" parent="2Rd2rmzqAi-p8BPYmMrB-41">
          <mxGeometry x="42.5" y="260" width="75" height="30" as="geometry" />
        </mxCell>
        <mxCell id="2Rd2rmzqAi-p8BPYmMrB-78" value="IPM" style="swimlane;" vertex="1" parent="1">
          <mxGeometry x="390" y="140" width="160" height="890" as="geometry" />
        </mxCell>
        <mxCell id="2Rd2rmzqAi-p8BPYmMrB-86" value="发布IPM负卖" style="rounded=0;whiteSpace=wrap;html=1;" vertex="1" parent="2Rd2rmzqAi-p8BPYmMrB-78">
          <mxGeometry x="42.5" y="180" width="75" height="30" as="geometry" />
        </mxCell>
        <mxCell id="2Rd2rmzqAi-p8BPYmMrB-95" value="占用IPM负卖库存" style="rounded=0;whiteSpace=wrap;html=1;" vertex="1" parent="2Rd2rmzqAi-p8BPYmMrB-78">
          <mxGeometry x="42.5" y="260" width="75" height="30" as="geometry" />
        </mxCell>
        <mxCell id="2Rd2rmzqAi-p8BPYmMrB-110" value="差值发布可售库存" style="rounded=0;whiteSpace=wrap;html=1;" vertex="1" parent="2Rd2rmzqAi-p8BPYmMrB-78">
          <mxGeometry x="42.5" y="510" width="75" height="30" as="geometry" />
        </mxCell>
        <mxCell id="2Rd2rmzqAi-p8BPYmMrB-87" style="edgeStyle=orthogonalEdgeStyle;rounded=0;orthogonalLoop=1;jettySize=auto;html=1;exitX=1;exitY=0.5;exitDx=0;exitDy=0;entryX=0;entryY=0.5;entryDx=0;entryDy=0;" edge="1" parent="1" source="2Rd2rmzqAi-p8BPYmMrB-81" target="2Rd2rmzqAi-p8BPYmMrB-85">
          <mxGeometry relative="1" as="geometry" />
        </mxCell>
        <mxCell id="2Rd2rmzqAi-p8BPYmMrB-88" style="edgeStyle=orthogonalEdgeStyle;rounded=0;orthogonalLoop=1;jettySize=auto;html=1;exitX=1;exitY=0.5;exitDx=0;exitDy=0;entryX=0;entryY=0.5;entryDx=0;entryDy=0;" edge="1" parent="1" source="2Rd2rmzqAi-p8BPYmMrB-85" target="2Rd2rmzqAi-p8BPYmMrB-86">
          <mxGeometry relative="1" as="geometry" />
        </mxCell>
        <mxCell id="2Rd2rmzqAi-p8BPYmMrB-91" value="采购执行" style="swimlane;" vertex="1" parent="1">
          <mxGeometry x="551" y="140" width="160" height="890" as="geometry" />
        </mxCell>
        <mxCell id="2Rd2rmzqAi-p8BPYmMrB-105" style="edgeStyle=orthogonalEdgeStyle;rounded=0;orthogonalLoop=1;jettySize=auto;html=1;exitX=0.5;exitY=1;exitDx=0;exitDy=0;entryX=0.5;entryY=0;entryDx=0;entryDy=0;" edge="1" parent="2Rd2rmzqAi-p8BPYmMrB-91" source="2Rd2rmzqAi-p8BPYmMrB-92" target="2Rd2rmzqAi-p8BPYmMrB-104">
          <mxGeometry relative="1" as="geometry" />
        </mxCell>
        <mxCell id="2Rd2rmzqAi-p8BPYmMrB-92" value="生成采购单" style="rounded=0;whiteSpace=wrap;html=1;" vertex="1" parent="2Rd2rmzqAi-p8BPYmMrB-91">
          <mxGeometry x="38" y="357" width="75" height="30" as="geometry" />
        </mxCell>
        <mxCell id="2Rd2rmzqAi-p8BPYmMrB-104" value="采购入库" style="rounded=0;whiteSpace=wrap;html=1;" vertex="1" parent="2Rd2rmzqAi-p8BPYmMrB-91">
          <mxGeometry x="38" y="410" width="75" height="30" as="geometry" />
        </mxCell>
        <mxCell id="2Rd2rmzqAi-p8BPYmMrB-96" style="edgeStyle=orthogonalEdgeStyle;rounded=0;orthogonalLoop=1;jettySize=auto;html=1;exitX=0;exitY=0.5;exitDx=0;exitDy=0;entryX=1;entryY=0.5;entryDx=0;entryDy=0;" edge="1" parent="1" source="2Rd2rmzqAi-p8BPYmMrB-56" target="2Rd2rmzqAi-p8BPYmMrB-95">
          <mxGeometry relative="1" as="geometry" />
        </mxCell>
        <mxCell id="2Rd2rmzqAi-p8BPYmMrB-97" style="edgeStyle=orthogonalEdgeStyle;rounded=0;orthogonalLoop=1;jettySize=auto;html=1;exitX=1;exitY=0.5;exitDx=0;exitDy=0;entryX=0;entryY=0.5;entryDx=0;entryDy=0;" edge="1" parent="1" source="2Rd2rmzqAi-p8BPYmMrB-56" target="2Rd2rmzqAi-p8BPYmMrB-89">
          <mxGeometry relative="1" as="geometry" />
        </mxCell>
        <mxCell id="2Rd2rmzqAi-p8BPYmMrB-102" style="edgeStyle=orthogonalEdgeStyle;rounded=0;orthogonalLoop=1;jettySize=auto;html=1;exitX=0;exitY=0.5;exitDx=0;exitDy=0;entryX=0.5;entryY=0;entryDx=0;entryDy=0;" edge="1" parent="1" source="2Rd2rmzqAi-p8BPYmMrB-95" target="2Rd2rmzqAi-p8BPYmMrB-100">
          <mxGeometry relative="1" as="geometry" />
        </mxCell>
        <mxCell id="2Rd2rmzqAi-p8BPYmMrB-107" style="edgeStyle=orthogonalEdgeStyle;rounded=0;orthogonalLoop=1;jettySize=auto;html=1;exitX=0;exitY=0.5;exitDx=0;exitDy=0;entryX=1;entryY=0.5;entryDx=0;entryDy=0;" edge="1" parent="1" source="2Rd2rmzqAi-p8BPYmMrB-104" target="2Rd2rmzqAi-p8BPYmMrB-106">
          <mxGeometry relative="1" as="geometry" />
        </mxCell>
        <mxCell id="2Rd2rmzqAi-p8BPYmMrB-120" style="edgeStyle=orthogonalEdgeStyle;rounded=0;orthogonalLoop=1;jettySize=auto;html=1;exitX=0.5;exitY=1;exitDx=0;exitDy=0;entryX=0;entryY=0.5;entryDx=0;entryDy=0;" edge="1" parent="1" source="2Rd2rmzqAi-p8BPYmMrB-121" target="2Rd2rmzqAi-p8BPYmMrB-110">
          <mxGeometry relative="1" as="geometry">
            <mxPoint x="408.5" y="732" as="sourcePoint" />
          </mxGeometry>
        </mxCell>
        <mxCell id="2Rd2rmzqAi-p8BPYmMrB-123" style="edgeStyle=orthogonalEdgeStyle;rounded=0;orthogonalLoop=1;jettySize=auto;html=1;exitX=1;exitY=0.5;exitDx=0;exitDy=0;entryX=0;entryY=0.5;entryDx=0;entryDy=0;" edge="1" parent="1" source="2Rd2rmzqAi-p8BPYmMrB-100" target="2Rd2rmzqAi-p8BPYmMrB-92">
          <mxGeometry relative="1" as="geometry" />
        </mxCell>
        <mxCell id="2Rd2rmzqAi-p8BPYmMrB-125" style="edgeStyle=orthogonalEdgeStyle;rounded=0;orthogonalLoop=1;jettySize=auto;html=1;exitX=1;exitY=0.5;exitDx=0;exitDy=0;entryX=0;entryY=0.5;entryDx=0;entryDy=0;" edge="1" parent="1" source="2Rd2rmzqAi-p8BPYmMrB-121" target="2Rd2rmzqAi-p8BPYmMrB-124">
          <mxGeometry relative="1" as="geometry" />
        </mxCell>
        <mxCell id="2Rd2rmzqAi-p8BPYmMrB-138" style="edgeStyle=orthogonalEdgeStyle;rounded=0;orthogonalLoop=1;jettySize=auto;html=1;exitX=0;exitY=0.5;exitDx=0;exitDy=0;entryX=1;entryY=0.5;entryDx=0;entryDy=0;" edge="1" parent="1" source="2Rd2rmzqAi-p8BPYmMrB-126" target="2Rd2rmzqAi-p8BPYmMrB-137">
          <mxGeometry relative="1" as="geometry" />
        </mxCell>
        <mxCell id="2Rd2rmzqAi-p8BPYmMrB-159" style="edgeStyle=orthogonalEdgeStyle;rounded=0;orthogonalLoop=1;jettySize=auto;html=1;exitX=0;exitY=0.5;exitDx=0;exitDy=0;entryX=1;entryY=0.5;entryDx=0;entryDy=0;" edge="1" parent="1" source="2Rd2rmzqAi-p8BPYmMrB-154" target="2Rd2rmzqAi-p8BPYmMrB-155">
          <mxGeometry relative="1" as="geometry" />
        </mxCell>
      </root>
    </mxGraphModel>
  </diagram>
</mxfile>
